# xmcd CD database file
#
# Track frame offsets:
#	150
#	12982
#	25427
#	35572
#	46400
#	56270
#	65942
#	77650
#	88715
#	101437
#
# Disc length: 1505 seconds
#
# Revision: 0
# Processed by: cddbd v1.4PL0 Copyright (c) Steve Scherf et al.
# Submitted via: Feurio! 1.60.2ß - http://www.feurio.com
#
DISCID=7e05df0a
DTITLE=Johnny Cash and George Jones - Back To Back
DYEAR=1994
DGENRE=Country
TTITLE0=Folsom Prison Blues/ Johnny Cash
TTITLE1=I Walk The Line/ Johnny Cash
TTITLE2=Get Rhythm/ Johnny Cash
TTITLE3=Train Of Love/ Johnny Cash
TTITLE4=Rock Island Line/ Johnny Cash
TTITLE5=The Race Is On/ George Jones
TTITLE6=She Thinks I Still Care/ George Jones
TTITLE7=Tender Years/ George Jones
TTITLE8=White Lightning/ George Jones
TTITLE9=The Window Up Above/ George Jones
EXTD=
EXTT0=
EXTT1=
EXTT2=
EXTT3=
EXTT4=
EXTT5=
EXTT6=
EXTT7=
EXTT8=
EXTT9=
PLAYORDER=
